HIERARCHY
ROOT Hips
{
	OFFSET -3.958830 18.904000 13.208200
	CHANNELS 6 Xposition Yposition Zposition Zrotation Yrotation Xrotation 
	JOINT LHipJoint
	{
		OFFSET 0.000000 0.000000 0.000000
		CHANNELS 3 Zrotation Yrotation Xrotation
		JOINT LeftUpLeg
		{
			OFFSET 1.800000 -1.400000 0.085000
			CHANNELS 3 Zrotation Yrotation Xrotation
			JOINT LeftLeg
			{
				OFFSET 2.215000 -6.000000 0.000000
				CHANNELS 3 Zrotation Yrotation Xrotation
				JOINT LeftFoot
				{
					OFFSET 2.500000 -6.900000 0.000000
					CHANNELS 3 Zrotation Yrotation Xrotation
					JOINT LeftToeBase
					{
						OFFSET 0.200000 -0.500000 1.950000
						CHANNELS 3 Zrotation Yrotation Xrotation
						End Site
						{
							OFFSET 0.000000 0.000000 0.000000
						}
					}
				}
			}
		}
	}
	JOINT RHipJoint
	{
		OFFSET 0.000000 0.000000 0.000000
		CHANNELS 3 Zrotation Yrotation Xrotation
		JOINT RightUpLeg
		{
			OFFSET -1.800000 -1.400000 0.085000
			CHANNELS 3 Zrotation Yrotation Xrotation
			JOINT RightLeg
			{
				OFFSET -2.215000 -6.000000 0.000000
				CHANNELS 3 Zrotation Yrotation Xrotation
				JOINT RightFoot
				{
					OFFSET -2.500000 -6.900000 0.000000
					CHANNELS 3 Zrotation Yrotation Xrotation
					JOINT RightToeBase
					{
						OFFSET -0.200000 -0.500000 1.950000
						CHANNELS 3 Zrotation Yrotation Xrotation
						End Site
						{
							OFFSET 0.000000 0.000000 0.000000
						}
					}
				}
			}
		}
	}
	JOINT LowerBack
	{
		OFFSET 0.000000 0.000000 0.000000
		CHANNELS 3 Zrotation Yrotation Xrotation
		JOINT Spine
		{
			OFFSET -0.087000 1.940000 -0.288900
			CHANNELS 3 Zrotation Yrotation Xrotation
			JOINT Spine1
			{
				OFFSET 0.000000 1.950000 0.060000
				CHANNELS 3 Zrotation Yrotation Xrotation
				JOINT Neck
				{
					OFFSET 0.000000 0.000000 0.000000
					CHANNELS 3 Zrotation Yrotation Xrotation
					JOINT Neck1
					{
						OFFSET 0.000000 1.600000 0.340000
						CHANNELS 3 Zrotation Yrotation Xrotation
						JOINT Head
						{
							OFFSET 0.000000 1.667000 -0.240000
							CHANNELS 3 Zrotation Yrotation Xrotation
							End Site
							{
								OFFSET 0.000000 0.000000 0.000000
							}
						}
					}
				}
				JOINT LeftShoulder
				{
					OFFSET 0.000000 0.000000 0.000000
					CHANNELS 3 Zrotation Yrotation Xrotation
					JOINT LeftArm
					{
						OFFSET 2.700000 1.550000 -0.730000
						CHANNELS 3 Zrotation Yrotation Xrotation
						JOINT LeftForeArm
						{
							OFFSET 5.450000 0.000000 0.000000
							CHANNELS 3 Zrotation Yrotation Xrotation
							JOINT LeftHand
							{
								OFFSET 3.450000 0.000000 0.000000
								CHANNELS 3 Zrotation Yrotation Xrotation
								JOINT LeftHandIndex1
								{
									OFFSET 0.750000 0.000000 0.000000
									CHANNELS 3 Zrotation Yrotation Xrotation
									End Site
									{
										OFFSET 0.000000 0.000000 0.000000
									}
								}
							}
						}
					}
				}
				JOINT RightShoulder
				{
					OFFSET 0.000000 0.000000 0.000000
					CHANNELS 3 Zrotation Yrotation Xrotation
					JOINT RightArm
					{
						OFFSET -2.700000 1.550000 -0.730000
						CHANNELS 3 Zrotation Yrotation Xrotation
						JOINT RightForeArm
						{
							OFFSET -5.450000 0.000000 0.000000
							CHANNELS 3 Zrotation Yrotation Xrotation
							JOINT RightHand
							{
								OFFSET -3.450000 0.000000 0.000000
								CHANNELS 3 Zrotation Yrotation Xrotation
								JOINT RightHandIndex1
								{
									OFFSET -0.750000 0.000000 0.000000
									CHANNELS 3 Zrotation Yrotation Xrotation
									End Site
									{
										OFFSET 0.000000 0.000000 0.000000
									}
								}
							}
						}
					}
				}
			}
		}
	}
}
MOTION
Frames: 10
Frame Time: 0.016667
-0.812580 17.377780 -2.873190 -10.525775 -23.771181 -11.329848 -15.542586 15.268784 3.075624 18.622096 -0.798324 -2.824854 -6.266345 7.668645 16.941290 -0.190129 5.751060 2.297411 0.710530 0.269290 1.006420 17.676890 -9.961711 2.406269 -6.004155 1.919930 -14.529284 9.284399 -8.665166 28.473763 -0.818249 -4.064510 2.634246 0.021490 -0.577100 0.342870 -1.565291 -6.446352 -7.853204 -4.940835 0.756747 38.089626 5.082843 2.225732 12.907091 0.355044 -3.957311 -13.966453 -23.832802 15.280295 61.171429 -2.053130 11.595500 -31.159770 -27.968358 -18.456238 7.581440 -47.321810 -22.340820 -2.491654 138.290050 -66.228076 -140.332844 -3.438475 2.935344 1.121310 -0.508560 0.651530 -0.148370 27.303850 21.081821 10.049307 51.255653 -3.927791 -17.588849 5.157047 28.302396 -0.913439 2.168182 -1.099612 0.007060 -0.034520 -0.139790 -0.505210 
-0.856200 17.371050 -2.867020 -9.375500 -24.274991 -11.630346 -15.621611 15.389573 3.066009 17.729594 -0.716375 -2.740423 -6.038980 7.627460 17.198270 -0.214073 5.740293 2.303606 0.695510 0.250840 1.005390 17.606324 -9.934115 2.322780 -6.283335 1.457012 -12.688316 8.763257 -7.840099 25.260937 -0.748024 -3.674516 2.788067 0.019960 -0.564460 0.337100 -1.306013 -6.755329 -7.804848 -7.449219 1.886113 36.593285 6.638753 2.942325 13.583172 -0.096009 -3.761551 -14.298068 -23.697907 15.540542 62.213810 -1.773300 11.908830 -30.821800 -28.244988 -18.952078 8.037478 -47.242881 -21.912182 -2.588381 138.183022 -65.698360 -140.037425 -3.466537 2.883145 1.137040 -0.498360 0.647060 -0.159320 28.535754 21.917357 10.458575 50.376267 -4.200323 -17.116759 3.649056 27.153280 -1.071482 2.150646 -1.080435 -0.014910 -0.017200 -0.124060 -0.517090 
-0.913210 17.345850 -2.852530 -8.519274 -25.260026 -11.616608 -15.683035 15.470149 3.005103 17.051591 -0.638422 -2.938472 -5.514127 7.619125 18.135217 -0.268143 5.771205 2.288633 0.668820 0.222290 0.979440 17.559248 -9.891509 2.321866 -6.022351 0.996668 -9.935827 8.095420 -6.758170 20.303196 -0.680293 -3.228561 2.971653 0.023850 -0.526510 0.334310 -1.097287 -6.972636 -7.750513 -9.247293 2.870990 34.588327 8.134659 3.798904 14.369893 -0.677752 -3.880295 -14.728451 -24.440786 16.345872 62.908489 -0.900700 12.078990 -30.363830 -28.875131 -19.405554 8.494235 -47.402071 -21.573256 -2.512381 137.171541 -65.083438 -138.311311 -3.526270 2.788125 1.162640 -0.477750 0.633590 -0.168010 30.412019 22.888431 10.945499 48.879768 -4.392069 -16.001036 1.429894 24.695878 -1.181767 2.131669 -1.045621 -0.053650 0.016630 -0.088610 -0.525070 
-0.970790 17.323290 -2.842470 -8.318282 -26.447891 -11.300416 -15.725627 15.438173 2.931516 17.205731 -0.598472 -3.306888 -5.439289 7.799439 19.228613 -0.272982 5.854505 2.249647 0.670300 0.229560 0.980920 17.544816 -9.776932 2.439397 -5.306669 0.617921 -6.839279 7.742567 -5.812039 14.677241 -0.673545 -2.942788 3.104245 0.031590 -0.525970 0.321130 -0.985342 -7.053391 -7.763774 -9.850781 3.416308 33.166781 8.924130 4.478998 15.066509 -0.938229 -4.160145 -15.111447 -25.417396 17.057747 63.163930 -1.040550 12.189690 -30.739660 -29.819476 -19.850024 8.897345 -46.948147 -21.160205 -2.711758 136.531694 -64.567913 -137.102055 -3.546416 2.724515 1.171920 -0.481580 0.635390 -0.169640 31.951688 23.866370 11.396308 47.555791 -4.076865 -15.026322 -0.784181 22.828227 -1.291043 2.141703 -1.032727 -0.063580 0.036980 -0.086140 -0.528170 
-1.025370 17.302240 -2.825260 -8.854704 -27.784168 -10.594713 -15.733058 15.265164 2.877641 18.302134 -0.647839 -3.760694 -6.148677 8.257600 20.334491 -0.271926 6.077576 2.161116 0.677180 0.232150 0.991720 17.573530 -9.613093 2.656251 -4.450262 0.271307 -3.834098 8.189122 -5.217659 9.140049 -0.723354 -2.918414 3.147748 0.040270 -0.518470 0.301620 -1.022798 -6.942288 -7.848953 -8.805226 3.407542 32.382073 8.788538 4.936048 15.441601 -1.017391 -4.670560 -15.405275 -27.231431 18.225611 62.820192 -1.095610 12.212240 -31.520950 -30.809666 -19.959160 9.069958 -46.731323 -20.880143 -2.856082 135.822007 -64.270979 -135.866805 -3.566349 2.647758 1.191390 -0.487870 0.632070 -0.169260 33.130104 24.438005 11.648002 46.303422 -3.645703 -13.842284 -1.481743 20.518807 -1.120954 2.156754 -0.991733 -0.083750 0.073000 -0.084030 -0.535600 
-1.072740 17.280960 -2.817610 -9.490493 -28.828178 -9.541328 -15.692823 15.056944 2.828543 19.295499 -0.757400 -4.687277 -6.618092 8.643973 21.602838 -0.298567 6.274079 2.075978 0.641210 0.185650 0.976080 17.634442 -9.524038 2.887596 -3.667487 0.066037 -2.136024 8.890517 -4.841086 4.923091 -0.767231 -2.994152 3.132402 0.029960 -0.491530 0.285190 -1.199659 -6.632192 -7.943638 -7.188814 3.116709 31.651885 7.937343 5.055384 15.718011 -1.015950 -4.834271 -15.933692 -27.856171 18.753915 62.683831 -0.756780 12.232700 -31.333230 -30.749584 -20.706604 9.675499 -46.972569 -20.757451 -3.034871 134.995197 -62.924138 -133.711941 -3.623740 2.529870 1.213330 -0.481820 0.616410 -0.182920 33.125933 25.152279 11.862525 46.886972 -2.987410 -13.653829 -3.292107 19.986940 -1.299536 2.166566 -0.953624 -0.124390 0.106480 -0.054530 -0.545110 
-1.114810 17.266710 -2.822250 -9.702508 -29.365141 -8.873608 -15.638002 14.939812 2.785280 19.549736 -0.869238 -5.479064 -6.566534 8.765613 22.610855 -0.322259 6.349220 2.048502 0.606540 0.142610 0.952490 17.692212 -9.508958 3.030781 -3.461600 -0.011924 -1.544390 9.658059 -4.680745 2.705278 -0.786641 -3.067246 3.122946 0.014450 -0.462910 0.270890 -1.391651 -6.398019 -7.981386 -6.188978 2.728601 31.799274 6.989380 4.862845 15.538473 -1.088724 -5.178808 -16.009206 -28.614550 19.064862 61.264363 -0.739770 12.165960 -31.982240 -30.205027 -20.884761 9.855140 -46.852970 -20.897623 -3.247330 134.134324 -61.785000 -131.389720 -3.666782 2.437793 1.223550 -0.475990 0.595820 -0.189370 32.688011 25.301437 11.743268 47.560097 -1.954785 -13.666742 -3.953396 20.106900 -1.413758 2.171709 -0.919762 -0.154660 0.134770 -0.029890 -0.546400 
-1.152970 17.258110 -2.839800 -9.793071 -29.491601 -8.400779 -15.579576 14.913579 2.765381 19.597524 -0.974949 -6.361707 -6.197844 8.728819 23.466963 -0.300321 6.321200 2.058664 0.594050 0.138400 0.926850 17.739298 -9.552918 3.066185 -3.452864 0.100666 -2.024799 10.286101 -4.706262 2.729833 -0.780644 -3.061150 3.131846 -0.001280 -0.458420 0.268640 -1.562097 -6.256773 -7.971854 -5.607358 2.286428 32.848803 6.089780 4.472482 14.970087 -1.097530 -5.725753 -15.675565 -29.447264 19.055977 58.444546 -0.995710 12.025960 -33.430280 -29.168429 -20.475845 9.641802 -47.136052 -21.476948 -3.395547 133.295331 -60.853484 -129.146110 -3.671163 2.420243 1.201650 -0.484650 0.587970 -0.181020 31.546404 25.000889 11.356017 48.525103 -0.640204 -13.962038 -3.694213 21.167399 -1.521384 2.192595 -0.923271 -0.139260 0.127230 -0.032670 -0.525650 
-1.181700 17.255430 -2.862440 -9.613716 -29.191290 -7.882245 -15.497036 14.900349 2.770060 19.225836 -1.124014 -7.326315 -5.824995 8.503612 23.724566 -0.272155 6.171432 2.131930 0.591580 0.155250 0.885140 17.793045 -9.673474 3.046520 -3.910179 0.310543 -3.389187 10.916770 -4.843023 3.888633 -0.755687 -3.017236 3.163654 -0.009590 -0.439590 0.263300 -1.780155 -6.044899 -7.934068 -4.934079 1.538859 34.001095 4.844020 3.699216 14.347334 -1.042061 -6.333205 -15.465505 -30.184642 18.864551 55.241889 -0.997870 11.754130 -34.023920 -27.768998 -20.307197 9.568768 -47.434082 -22.182644 -3.757985 131.889301 -59.577443 -125.747094 -3.678955 2.388525 1.160700 -0.484770 0.575540 -0.145100 29.964575 24.822632 11.018312 49.536446 0.522225 -14.267773 -1.873808 22.757854 -1.471894 2.202582 -0.942945 -0.114850 0.124960 -0.051130 -0.488350 
-1.198280 17.258580 -2.883190 -9.456604 -28.869865 -7.510594 -15.367460 14.856713 2.762947 18.758891 -1.222612 -7.775458 -5.354757 8.153880 23.446271 -0.278781 5.980347 2.227396 0.583010 0.161710 0.838950 17.883991 -9.872392 3.022827 -4.503382 0.529747 -5.059627 11.470952 -5.076791 5.573690 -0.724139 -2.984393 3.187656 -0.010570 -0.407120 0.252810 -2.128637 -5.654559 -7.859020 -3.469238 0.387615 35.742144 2.844473 2.619407 13.787424 -1.007429 -7.039697 -15.283717 -31.183950 19.021703 51.509774 -0.408170 11.571260 -35.102710 -26.103241 -20.302477 9.456350 -47.122429 -23.060033 -4.384815 130.259744 -58.142622 -121.776855 -3.695769 2.328253 1.136400 -0.482820 0.556760 -0.113930 28.119247 24.511702 10.645664 50.521949 1.620001 -15.048350 1.109666 25.655614 -1.323477 2.190907 -0.954507 -0.112560 0.142570 -0.055530 -0.457460 
